<svg width="350" height="398" viewBox="0 0 350 398" fill="none" xmlns="http://www.w3.org/2000/svg">
<path d="M162.2 33.0846C108.859 53.097 58.4883 73.4211 50.6503 78.5009C31.1205 91.0572 12.0434 115.566 5.88478 135.228C-4.63861 169.839 -2.93888 177.52 39.0727 289.874C60.5617 347.653 79.8545 395.797 82.4347 396.968C88.1686 399.571 138.306 380.523 140.776 375.08C141.947 372.501 126.904 328.705 107.478 277.045C57.1905 143.314 55.2932 149.017 155.724 111.338L221.437 86.9216L231.62 114.001L241.516 140.951L192.629 159.53C165.699 170.109 143.092 179.541 142.442 180.973C140.361 185.557 157.434 227.166 162.021 229.248C164.601 230.419 185.908 223.851 210.078 214.783C234.248 205.715 254.981 198.887 256.701 199.668C260.428 201.36 274.841 239.688 273.02 243.699C272.37 245.131 252.264 253.625 228.094 262.693C203.924 271.761 183.427 281.115 182.387 283.407C179.786 289.136 202.006 347.592 207.739 350.194C210.32 351.365 235.09 343.261 262.724 332.655C304.787 316.161 315.281 310.56 325.303 299.907C339.516 284.592 350.722 256.856 349.743 238.445C349.421 226.206 271.581 12.2512 263.861 1.83691C260.314 -2.53702 246.379 1.50271 162.2 33.0846Z" fill="white"/>
</svg>
