<svg width="700" height="500" viewBox="0 0 80 96" fill="none" xmlns="http://www.w3.org/2000/svg">
<path d="M22.1361 15.5946C13.27 24.4607 5.02734 33.1189 3.91908 34.8506C1.14843 39.1451 -0.4447 45.7947 0.109431 50.297C1.14843 58.1934 2.18742 59.5787 20.8201 78.2806C30.3788 87.9086 38.6215 95.805 39.2449 95.805C40.6302 95.805 48.9422 87.4238 48.9422 86.1077C48.9422 85.4843 41.9463 78.0728 33.3573 69.4838C11.1228 47.2493 11.2613 48.5653 27.9545 31.8722L38.8986 20.9973L43.4009 25.4996L47.834 30.002L39.7298 38.1754C35.2967 42.747 31.6256 46.6952 31.6256 47.0415C31.6256 48.1497 38.8293 54.9378 39.9376 54.9378C40.561 54.9378 44.2321 51.6823 48.2495 47.6649C52.267 43.6474 55.7996 40.3919 56.2152 40.3919C57.1156 40.3919 63.4881 46.7644 63.4881 47.7341C63.4881 48.0805 60.2326 51.6131 56.2152 55.6305C52.1977 59.648 48.9422 63.3883 48.9422 63.9425C48.9422 65.3278 58.7088 75.0251 60.0941 75.0251C60.7175 75.0251 64.9427 71.1462 69.5143 66.5053C76.441 59.3709 78.0341 57.2929 79.0731 54.2452C80.5277 49.8814 80.2506 43.3011 78.3804 39.6992C77.2029 37.2749 42.1541 1.46423 39.6605 0.0788956C38.5523 -0.475235 36.1279 1.60276 22.1361 15.5946Z" fill="black"/>
</svg>
