<svg width="155" height="185" viewBox="0 0 155 185" fill="none" xmlns="http://www.w3.org/2000/svg">
<path d="M42.7332 30.2667C25.6665 47.3333 9.79987 64 7.66654 67.3334C2.33321 75.6 -0.73346 88.4 0.333207 97.0667C2.33321 112.267 4.33321 114.933 40.1999 150.933C58.5999 169.467 74.4665 184.667 75.6665 184.667C78.3332 184.667 94.3332 168.533 94.3332 166C94.3332 164.8 80.8665 150.533 64.3332 134C21.5332 91.2 21.7999 93.7334 53.9332 61.6L74.9999 40.6667L83.6665 49.3333L92.1999 58L76.5999 73.7333C68.0665 82.5333 60.9999 90.1333 60.9999 90.8C60.9999 92.9333 74.8665 106 76.9999 106C78.1999 106 85.2665 99.7334 92.9999 92C100.733 84.2667 107.533 78 108.333 78C110.067 78 122.333 90.2667 122.333 92.1333C122.333 92.8 116.067 99.6 108.333 107.333C100.6 115.067 94.3332 122.267 94.3332 123.333C94.3332 126 113.133 144.667 115.8 144.667C117 144.667 125.133 137.2 133.933 128.267C147.267 114.533 150.333 110.533 152.333 104.667C155.133 96.2667 154.6 83.6 151 76.6667C148.733 72 81.2665 3.06668 76.4665 0.400009C74.3332 -0.666656 69.6665 3.33334 42.7332 30.2667Z" fill="white"/>
</svg>
